{"title":"Face Off.S02E03.1024p.H.264.HDTV-r3mnants","uid":6985747,"size":622479966,"categoryP":"video","categoryS":"hd___tv_shows","magnet":"?xt=urn:btih:4b45e15b598a1d301a523a1d3d0a961fa857dbaa&amp;dn=Face+Off.S02E03.1024p.H.264.HDTV-r3mnants&amp;tr=udp%3A%2F%2Ftracker.openbittorrent.com%3A80&amp;tr=udp%3A%2F%2Fopen.demonii.com%3A1337&amp;tr=udp%3A%2F%2Ftracker.coppersurfer.tk%3A6969&amp;tr=udp%3A%2F%2Fexodus.desync.com%3A6969","seeders":1,"leechers":0,"uploader":"r3mnants","files":4,"time":1327567951,"description":"Face Off - Rock Your Body - S02E03\n\nReleaser:\nr3mnants\n\n[img]http://s15.postimage.org/6ktfe8ywp/fo1.png[/img]\n[img]http://s15.postimage.org/omckc1sxl/fo2.png[/img]\n\nFormat : MPEG-4\nFormat profile : Base Media\nCodec ID : isom\nFile size : 589 MiB\nDuration : 42mn 40s\nOverall bit rate mode : Variable\nOverall bit rate : 1 930 Kbps\nWriting application : Lavf50.4.0\n\nVideo\nID : 1\nFormat : AVC\nFormat/Info : Advanced Video Codec\nFormat profile : &lt;a class=&quot;__cf_email__&quot; href=&quot;/cdn-cgi/l/email-protection&quot; data-cfemail=&quot;eda08c8483ada1dfc3dc&quot;&gt;[email&amp;#160;protected]&lt;/a&gt;&lt;script cf-hash='f9e31' type=&quot;text/javascript&quot;&gt;\n/* &lt;![CDATA[ */!function(){try{var t=&quot;currentScript&quot;in document?document.currentScript:function(){for(var t=document.getElementsByTagName(&quot;script&quot;),e=t.length;e--;)if(t[e].getAttribute(&quot;cf-hash&quot;))return t[e]}();if(t&amp;&amp;t.previousSibling){var e,r,n,i,c=t.previousSibling,a=c.getAttribute(&quot;data-cfemail&quot;);if(a){for(e=&quot;&quot;,r=parseInt(a.substr(0,2),16),n=2;a.length-n;n+=2)i=parseInt(a.substr(n,2),16)^r,e+=String.fromCharCode(i);e=document.createTextNode(e),c.parentNode.replaceChild(e,c)}}}catch(u){}}();/* ]]&gt; */&lt;/script&gt;\nFormat settings, CABAC : Yes\nFormat settings, ReFrames : 2 frames\nCodec ID : avc1\nCodec ID/Info : Advanced Video Coding\nDuration : 42mn 39s\nBit rate : 1 796 Kbps\nWidth : 1 024 pixels\nHeight : 576 pixels\nDisplay aspect ratio : 16:9\nFrame rate mode : Constant\nFrame rate : 29.970 fps\nColor space : YUV\nChroma subsampling : 4:2:0\nBit depth : 8 bits\nScan type : Progressive\nBits/(Pixel*Frame) : 0.102\nStream size : 548 MiB (93%)\n\nAudio\nID : 2\nFormat : AAC\nFormat/Info : Advanced Audio Codec\nFormat profile : LC\nCodec ID : 40\nDuration : 42mn 40s\nBit rate mode : Variable\nBit rate : 128 Kbps\nChannel(s) : 2 channels\nChannel positions : Front: L R\nSampling rate : 48.0 KHz\nCompression mode : Lossy\nStream size : 39.1 MiB (7%)","torrent":{"xt":"urn:btih:4b45e15b598a1d301a523a1d3d0a961fa857dbaa","amp;dn":"Face+Off.S02E03.1024p.H.264.HDTV-r3mnants","amp;tr":["udp%3A%2F%2Ftracker.openbittorrent.com%3A80","udp%3A%2F%2Fopen.demonii.com%3A1337","udp%3A%2F%2Ftracker.coppersurfer.tk%3A6969","udp%3A%2F%2Fexodus.desync.com%3A6969"],"infoHash":"4b45e15b598a1d301a523a1d3d0a961fa857dbaa","infoHashBuffer":{"type":"Buffer","data":[75,69,225,91,89,138,29,48,26,82,58,29,61,10,150,31,168,87,219,170]},"announce":[],"urlList":[]}}